<?xml version="1.0" encoding="UTF-8"?>
<svg id="Vrstva_1" data-name="Vrstva 1" xmlns="http://www.w3.org/2000/svg" viewBox="0 0 707.22 780.66">
  <defs>
    <style>
      .cls-1, .cls-2, .cls-3, .cls-4, .cls-5, .cls-6, .cls-7, .cls-8 {
        stroke-width: 0px;
      }

      .cls-1, .cls-4 {
        fill-rule: evenodd;
      }

      .cls-1, .cls-8 {
        fill: #fff;
      }

      .cls-2, .cls-4 {
        fill: #0d132d;
      }

      .cls-3 {
        fill: #d33e3d;
      }

      .cls-5 {
        fill: #af1e23;
      }

      .cls-6 {
        fill: #ffd568;
      }

      .cls-7 {
        fill: #261a1c;
      }
    </style>
  </defs>
  <path class="cls-2" d="M668.07,376.11c0-12.58-6.21-15.06-21.88-28.06-10.08-8.36-20.68-15.49-30.84-20.74l16.45,9.89c41-14.44,84.84-65.2,73.66-115.16-2.87-12.79-34.81-55.67-64.28-67.42,1.05-11.04-.69-73.07-.69-73.07,0-23.28-11.23-34.77-33.32-41.77-16.21-5.03-32.82-9.65-49.36-13.75-7.49-1.85-14.3-1.97-20.27-.34l-.17.03c-.47.1-.93.2-1.39.32l-.22.05c-.44.09-.88.19-1.31.3l-.17.04c-.47.1-.94.2-1.39.33h-.04c-.5.11-1,.23-1.48.36l-.12.02c-.45.1-.9.2-1.34.31-.52.11-1.03.23-1.53.36-.51.11-1.01.23-1.51.36-.25.05-.5.11-.76.17-15.74-3.68-53.82-13.28-61.51-14.32-11.17-1.5-13.27,11.51-13.27,11.51,0,0-39.83-35.63-92.75-8.78,1.18-5.9-2.36-14.15-7.34-15.07-13.79-2.54-18.53-1.62-34.99-1.07-3.02.1-14.09.6-17.1.73-16.15.85-32.49,2.16-48.57,3.89-2.91.32-5.66,1.38-8,3.06-2.7-1.1-5.63-1.49-8.49-1.12-16.44,2.08-33.02,4.67-49.28,7.67-5.26.97-9.79,4.42-12.13,9.24-.41.83-.74,1.69-.99,2.56-.18-.04-.37-.09-.56-.13-.43-.12-.88-.23-1.42-.35-.46-.13-.94-.24-1.41-.34h-.03c-.43-.13-.88-.23-1.32-.33l-.14-.03c-.42-.11-.85-.21-1.28-.31l-.17-.04c-.44-.12-.89-.22-1.34-.32l-.16-.03c-.41-.11-.84-.21-1.27-.31l-.22-.05c-.41-.11-.81-.2-1.23-.29l-.23-.05c-5.99-1.69-12.84-1.64-20.36.15-27.36,6.52-84.52,21.76-87.49,27.78-3.79,7.67,0,104.54,0,104.54-10.21,11.77-31.67,27.25-44.04,52.22-23.89,48.22,3.04,101.12,44.04,115.55l19.7,8.25c-10.16,5.26-10.6,7.12-20.68,15.49-15.68,13-18.04,16.18-17.69,29.28-.7,5.59.03,20.92,45.8,52.19l.15,21.34c0,88.32,39.34,178.58,122.79,246.46,62.12,50.53,134.53,80.45,141.05,82.19l3.6.96c.45.12.92.18,1.38.18s.93-.06,1.38-.18l3.6-.96c6.53-1.75,71.57-28.23,133.69-78.76,83.45-67.88,131.74-163.79,131.74-252.11l.57-18.54c25.82-24.12,45.95-37.23,47.99-54Z"/>
  <path class="cls-8" d="M186.37,603.3c-82.17-66.83-98.1-69.12-98.1-155.78V54.56h521.79v392.97c0,86.66-23.61,100.13-105.78,166.96-61.44,49.97-256.47,38.79-317.91-11.18Z"/>
  <path class="cls-8" d="M251.19,16.95c-2.95.32-5.62,1.76-7.52,3.97-.3-.14-.61-.27-.93-.39-.28-.13-.56-.25-.86-.35-.29-.14-.6-.26-.9-.37-1.91-.86-4.04-1.21-6.18-.94-16.33,2.07-32.81,4.64-48.99,7.63-3.61.67-6.69,3.01-8.3,6.32-1.06,2.18-1.38,4.6-.99,6.94-.36-.1-.72-.17-1.08-.26-.46-.14-.93-.25-1.4-.36-.46-.13-.92-.24-1.39-.35-.46-.13-.93-.25-1.41-.35-.46-.13-.93-.24-1.4-.35-.47-.14-.95-.24-1.43-.35-.47-.14-.96-.24-1.44-.35-.47-.14-.96-.24-1.44-.35-.48-.14-.97-.24-1.47-.35-.48-.14-.97-.24-1.47-.35-.48-.14-.99-.24-1.48-.35-.49-.14-1-.24-1.5-.35-5.13-1.48-16.99-.94-23.71.67-22.21,5.29-45.48,13.68-77.21,24.54-3.39,1.16,2.27,168.66,2.27,168.66-2.13,3.92-4.27,7.79-6.41,11.62-2,3.58-1.95,7.95.12,11.49,1.94,3.31,5.39,5.4,9.19,5.66.72.2,1.47.3,2.22.35.72.2,1.46.3,2.21.36.71.19,1.44.3,2.19.36.7.19,1.43.3,2.17.35.7.19,1.42.3,2.16.36.7.19,1.41.3,2.14.35.69.19,1.4.3,2.12.35.68.19,1.39.29,2.1.36.68.19,1.38.3,2.09.36.67.18,1.37.29,2.07.35.67.18,1.36.3,2.06.36.66.18,1.34.29,2.03.35.66.18,1.33.3,2.02.36.65.18,1.32.29,2.01.36.65.18,1.31.29,1.99.35.64.18,1.3.29,1.97.36.64.18,1.29.29,1.96.36.63.17,1.28.29,1.94.36.63.17,1.27.29,1.92.35.62.17,1.26.29,1.91.36.62.17,1.25.29,1.9.36.61.17,1.24.29,1.89.36.61.17,1.22.28,1.86.35.6.17,1.22.29,1.85.35.6.16,1.21.29,1.83.35.6.17,1.2.29,1.83.36.59.16,1.19.29,1.8.36.59.16,1.18.28,1.79.35.58.16,1.17.28,1.78.35.58.16,1.17.29,1.77.36.57.16,1.15.28,1.74.35.57.16,1.14.28,1.74.35.56.16,1.13.29,1.72.36.56.16,1.13.28,1.71.36.55.16,1.12.28,1.69.35.55.15,1.1.28,1.67.35.54.15,1.09.28,1.65.35.54.15,1.08.28,1.64.35.53.15,1.06.27,1.61.35.53.15,1.06.28,1.61.35.52.15,1.05.27,1.6.35.52.15,1.05.27,1.59.35.51.15,1.03.27,1.57.35.51.15,1.03.27,1.56.35.5.15,1.02.27,1.55.35.5.15,1.02.27,1.53.35.5.15,1,.27,1.52.35.49.15.99.27,1.51.35.49.15.99.27,1.5.35,1.09.33,2.22.53,3.38.53h55.63c8.55,0,14-3.65,17.08-6.73,1.04-1.04,1.96-2.16,2.78-3.35.23.09.45.19.68.27.28.12.56.24.84.35.27.12.55.24.83.35.27.12.55.24.82.35.28.12.56.24.83.35.27.12.53.24.8.34.27.12.54.24.81.35.27.12.53.24.8.35.27.12.53.24.8.35.26.12.52.24.78.35.27.12.53.24.79.35.13.06.25.12.38.17.26.13.53.24.79.36.25.12.5.23.75.34.25.12.5.23.76.35.25.12.5.24.75.35.25.12.5.23.75.35.25.12.5.24.75.35.24.12.48.23.72.34.25.12.49.24.73.35.24.12.49.24.73.35.23.12.47.23.7.34,3.78,1.96,7.85,2.66,11.7,2.67h33.93c6.71,0,12.58-2.33,16.99-6.74.92-.92,1.75-1.91,2.53-2.98,0,.01.01.02.02.04.05.12.11.25.17.37.04.12.1.23.15.34.05.12.11.24.16.37.05.11.1.23.15.34.05.13.11.25.16.38.04.12.1.23.15.34.05.12.11.25.16.37.36.89.83,1.74,1.42,2.53,2.18,2.92,5.61,4.64,9.26,4.64h61c1.61,0,3.14-.33,4.54-.93,1.4.59,2.92.93,4.49.93h61c1.68,0,3.28-.37,4.72-1.01.29-.11.59-.22.88-.34.3-.1.6-.22.89-.34.3-.1.6-.22.89-.34.31-.1.61-.22.91-.35.31-.1.61-.21.9-.34.32-.1.62-.21.92-.34.31-.1.61-.21.91-.34.36-.12.71-.25,1.05-.4.04-.01.08-.03.12-.04,3.2,2.1,7.62,3.87,13.57,3.87h35.14c2.28-.01,4.93-.28,7.63-1.03.47-.1.94-.22,1.41-.35.47-.1.94-.22,1.41-.35.47-.1.95-.22,1.42-.35.49-.1.97-.22,1.47-.35.48-.1.97-.22,1.46-.35.49-.1.99-.22,1.49-.36.49-.1.98-.22,1.47-.35.5-.1,1.01-.22,1.51-.36.5-.1,1.01-.22,1.51-.35.5-.1,1.02-.22,1.53-.35.5-.1,1.01-.22,1.53-.35.52-.1,1.04-.22,1.56-.36.52-.1,1.04-.22,1.56-.35.52-.1,1.04-.22,1.57-.35.52-.1,1.05-.22,1.58-.35.53-.1,1.07-.22,1.61-.35.54-.1,1.07-.22,1.62-.35.54-.1,1.08-.22,1.62-.35.54-.1,1.08-.22,1.63-.35.55-.1,1.1-.22,1.66-.35.55-.1,1.11-.22,1.67-.35.56-.1,1.11-.22,1.68-.35.55-.1,1.11-.21,1.67-.35.57-.1,1.15-.22,1.73-.36.57-.1,1.14-.22,1.72-.35.57-.1,1.15-.22,1.73-.35.58-.1,1.15-.21,1.74-.35.59-.1,1.18-.22,1.78-.36.58-.1,1.18-.22,1.78-.35.59-.1,1.19-.22,1.79-.35.6-.1,1.19-.21,1.8-.35.6-.1,1.21-.21,1.82-.35.6-.1,1.22-.22,1.84-.35.61-.1,1.23-.21,1.85-.35.61-.1,1.23-.21,1.86-.35.62-.1,1.25-.22,1.88-.35.63-.1,1.26-.22,1.89-.35.63-.1,1.27-.22,1.91-.36.63-.1,1.25-.21,1.89-.34.65-.1,1.3-.22,1.96-.36.64-.1,1.29-.22,1.95-.35.64-.1,1.29-.21,1.95-.35.65-.1,1.3-.21,1.96-.35.66-.1,1.33-.21,2-.35.66-.1,1.33-.21,2-.35.68-.1,1.35-.22,2-.35.7-.1,1.38-.22,2.05-.35.71-.1,1.4-.22,2.08-.36.71-.1,1.4-.22,2.09-.35,17.51-2.45,27.07-14.3,27.07-34.02v-42.13c0-12.58-2.25-38.21-2.25-42.59l.02-46.63c-.01-21.03-10.08-34.88-30-41.19-16.16-5.01-32.67-9.61-49.06-13.67-6.7-1.67-12.63-1.76-17.73-.33-.53.11-1.07.21-1.59.36-.51.11-1.02.2-1.51.34-.52.11-1.04.21-1.54.35-.51.11-1.04.22-1.54.36-.5.11-1,.21-1.48.35-.5.11-1.01.21-1.5.35-.51.11-1.01.22-1.51.36-.49.11-.98.21-1.45.35-.05.01-.11.02-.17.03-14.47-1.16-54.76-16.75-63.15-13.26-5.42,1.51-5.53,24.21-5.94,23.4-1.7-3.33-11.31-14.25-19.91-19.39-12.58-7.51-15.9-8.91-33.01-9.26-12.36-.39-38.73,1.53-52.1,13.97-.02-.79.79-15.65-1.01-18.51-2.08-3.31-7.97-5.1-11.88-5.19-16.4-.38-6.71-.08-23.11.46-3.25.11-13.73.56-16.99.73-16.06.84-32.31,2.14-48.27,3.87Z"/>
  <path class="cls-2" d="M623.3,214.87l-29.3,22.59h9.91c.32,0,.62-.02.93-.03l18.17-14.8c.2-1.57.3-3.26.3-5.11v-2.65Z"/>
  <g>
    <path class="cls-4" d="M393.28,32.58h14.48c22.24,2.61,39.13,12.89,45.35,32.46,5.19,16.34,3.05,76.31,3.05,96.85,0,21.82,1.86,44.79-1.91,63.37-4.98,24.57-23.33,34.27-46.5,37.49h-14.48c-19.46-2-35.59-10.68-43.45-27.44-5.66-12.07-5.34-32.73-5.34-50.23,0-19.49.38-38.27.38-55.26,0-20.12,2.47-68.33,11.05-79.08,8.25-10.33,21.26-16.68,37.35-18.16ZM392.9,116.68c-1.07,27.07,0,55.95,0,83.08,0,8.26-.79,27.19,3.05,30.14,1.88,1.45,6.29,1.33,8.01.39,3.6-1.98,3.57-7.34,3.81-13.14,1.25-30.21,0-56.73,0-85.79,0-12.31,3.15-34.39-8.39-32.08-6.49,1.31-6.17,9.55-6.48,17.39Z"/>
    <path class="cls-4" d="M69.69,68.98c27.66-11.18,40.12-15.97,58.68-19.76,25.69-5.24,43.38-4.25,51.34,8.38,6.49,10.29,3,71.55-4.44,85.57-3.83,7.21-12.45,9.29-20.97,12.37,4.76,1.36,9.34,2.3,13.34,4.64,14.07,8.21,14.48,25.82,14.48,48.31,0,13.58-1.02,26.03-4.57,33.23-8.37,16.94-34.14,15.07-58.7,15.07h-49.17V68.98ZM136.64,137.61c2.62-3.57,8.27-11.18,6.89-35.98-.95-17.12-14.17-20.04-26.87-18.52-.89,13.14,1.69,45.9,1.44,59.68,4.76-.46,16.13-1.88,18.54-5.18ZM131.44,220.85c2.91-3.94,2.29-15.43,2.29-22.8,0-7.98.78-19.25-2.29-22.8-2.51-2.9-8.91-2.29-12.96-3.09-.88,16.74-.12,35.16-.38,52.55,4.43-.72,10.73-.34,13.34-3.86Z"/>
    <path class="cls-4" d="M190.05,38.4c14.13-2.27,35.67-10.13,51.69-10.13,0,62.6,1.38,177.94,1.38,240.55h-53.09c0-62.21-.42-230.35.03-230.42Z"/>
    <path class="cls-4" d="M254.17,28.27c12.17,0,23.65-1.1,35.81-1.57,23.52-.9,46.77-4.47,52.79.52,9.86,8.18.54,24.56-4.37,46.19-1.22,5.4-3.08,11.52-4.58,17.4-10.37,40.69-20.89,79.78-31.25,120.37h35.83v45.61h-89.19c.84-10.34-1.11-21.58,0-32.45.61-5.92,3.02-12.58,4.58-18.81,10.95-43.67,21.55-86.97,32.4-131.19-10.04-1.1-21.72-.16-32.4-.47V29.68c-.03-.67-.07-1.33.38-1.41Z"/>
    <path class="cls-4" d="M469.49,36.13c22.96,6.81,24.59,7.25,40.42,11,8.99,27.72,17.87,77.42,26.68,105.32.89-27.05.02-76.05.27-103.75,5.99-8.1,23.34-.87,40.51,2.8v205.29h-42.69c-7.86-28.35-16.6-55.82-24.39-84.24-.89,27.31-.34,70.22-.6,98.17h-40.4c0-62.21.21-138.36.21-200.57-.03-.55-.46-33.95-.02-34.02Z"/>
    <path class="cls-4" d="M628,84.86c.86,62.8,2.92,109.33,2.92,171.93h-44.96c.25-62.47-2.27-139.09-1.38-200.93,8.76,0,22.76,4.21,31.27,10.92,7.05,5.55,10.85,13.1,12.15,18.08Z"/>
  </g>
  <path class="cls-1" d="M214.92,683.1s18.36-102.94,135.58-102.98c120.72-.04,129.35,96.6,129.35,105.94-10.34,9.34-41.76,29.99-64.46,43.49-32.33,19.23-66.22,31.3-66.22,31.3,0,0-31.65-11.22-64.49-29.92-33.47-19.06-42.81-25.65-59-39.21"/>
  <g>
    <path class="cls-4" d="M225.16,691.3l-9.86-7.9c3.18,2.62,6.46,5.25,9.86,7.9Z"/>
    <path class="cls-4" d="M588.04,515.34v-32.66h-32.76c-.24,10.89.47,22.64-.36,32.99-13.44-.22-4.79.43-17.62-.33v-32.66h-32.76c-.38,10.86-.07,22.36-.72,32.99h-21.81v-32.6h-32.04v32.99c-12.84-.22-68.56.43-80.8-.33v-32.66h-32.76c-.24,10.89.48,22.64-.36,32.99-12.85-.22-74.85.43-87.1-.33v-32.66h-31.68c-.42.06-.39.51-.36.97v31.63c-13.68-.22-3.16.43-16.24-.33v-32.66h-32.76c-.24,10.89.48,22.64-.36,32.99-13.44-.22-4.78.43-17.62-.33v-32.66h-32.76c-.24,10.89.48,22.64-.36,32.99-12,0-8.38-.47-20.38-.47,13.31,50.01,42.11,93.07,73.65,126.08,11.45,11.98,26.32,26.54,44.85,41.82.03-.15,3.19-17.64,15.07-38.16v50.36l5.6,4.48v-63.73c5.08-7.41,11.35-14.95,19.03-21.99v99l5.6,3.54v-107.38c20.26-16.43,49.19-29.1,90.28-29.11,38.8-.01,66,9.97,85.08,23.82v113.16c-6.93,4.4-13.82,8.66-20.07,12.37v-114.21h-5.6v117.46l.87-.49c-9.43,5.39-18.84,10.16-27.37,14.18v-117.79h-5.6v120.38c-11.85,5.39-21.37,9.11-25.84,10.8v-118.44h-5.6v118.42l2.8,1.06,2.79-.97v-.05c8.46-3.06,17.1-6.63,25.84-10.64v.02l5.6-2.62h0c17.47-8.36,35.16-18.34,52.17-29.17v.03l3.05-1.96s.02-.02.04-.03l2.51-1.62v-.03c5.81-3.8,11.54-7.69,17.13-11.65-5.35,3.67-11.2,7.53-17.13,11.37v-105.21c7.17,5.99,13.03,12.53,17.81,19.2v74.18l5.6-3.9v-61.61c13.44,23.13,15.26,45.59,15.26,49.88,16.11-12.7,30.43-25.61,41.78-37.78,31.2-33.46,63.64-76.54,79.19-132.52-12-.22-1.38.36-12.78-.4Z"/>
    <polygon class="cls-4" points="280.29 728.43 285.89 731.61 285.89 611.79 280.29 611.79 280.29 728.43"/>
    <polygon class="cls-4" points="311.03 744.65 316.63 747.25 316.63 628.62 311.03 628.62 311.03 744.65"/>
  </g>
  <path class="cls-4" d="M485.3,427.15c26.2,4.67,56.53,16.91,62.92,37.97-27.1-.27-34.02-5.65-54.25-.24,27.23,48.82-.15,108.7-31.11,138.37-.57.55-1.28,4.2-3.62,2.4,2.93-5.16,2.03-13.5,2.17-20.97-14.72,13.78-20.06,54.2-23.02,79.7-7.07-2.74-11.45-11.23-15.39-16.56-7.75,21.53-20.71,63.35-43.8,72.19,1.22-5.08,2.85-21.83,1.37-27.37-7.61,25.05-23.62,32.56-55.77,37.29,6.57-15.24-5.02-30.13-18.1-36.47,1.58,3.29-6.03,17.03-6.19,21.76-19.63-11.5-26.5-53.88-33.63-75.72-5.79,4.98-15.68,17.29-24.29,19.95-3.12-25.97,3.96-59.44-11.28-75.37.17,7.65-.82,16.26,2.17,21.56-2.96.69-5.38-3.69-7.96-6.59-20.51-23.05-41.08-55-37.63-97.63,1.1-13.56,5.44-24.8,10.85-35.94-19.24-6.43-27.88-.33-54.85-.36,6.7-20.6,24.39-31.29,51.64-34.89M527.27,436.73c-7.27-8.17-25.39-13.04-41.97-9.58,4.66-.06,8.8.3,11.58,1.79M347.08,578.69c16.55-1.41,28.27-12.07,46.31-8.39M330.44,569.71,332.61,608.04c-6.71-.64-14.55-3.53-19.53-3.6,11.45,6.39,26.33,12.82,46.31,10.18-4.65,3.75-10.91,6.14-18.81,7.19,17.14,9.58,17.84,47.91,6.51,63.49,16.6-12.42,28.26-28.92,27.49-55.7,8.13,3.66,12.72,10.24,16.65,17.37.27-17.79-11.66-25.49-11.58-43.13-6.29,1.78-12.97,3.24-20.26,4.19,11.93-7.09,23.13-14.79,29.67-26.35-14.41-.95-27.24,10.18-42.69,10.18-8.04,0-15.46-4-22.43-4.79,9.18,5.24,24.62,9.44,39.8,5.99-6.59,8.12-24.58,11.84-39.08,9.58,2,1.95,8.15,3.62,7.96,5.39Z"/>
  <path class="cls-2" d="M664.66,197.75l-22.58-32.83c-7.31-8.6-29.94-11.03-37.72-7.4-7.79,3.63-1.73,19.49-.74,28.02l4.47,38.84c.72,6.26-5.77,13.84-12.63,14.75l-119.29,15.84-9.07-18.66c-2.68-5.52-7.75-9.5-13.76-10.79-6-1.29-12.26.25-16.98,4.18-3.18,2.65-7.08,5.26-11.04,7.63-4.72-2.29-10.25-2.67-15.34-.88-6.44,2.26-29.94,9.65-62.08,9.65s-55.64-7.39-62.08-9.65c-5.1-1.79-10.62-1.42-15.35.88-3.96-2.37-7.86-4.97-11.04-7.63-4.71-3.93-10.98-5.47-16.98-4.18-6,1.29-11.08,5.27-13.76,10.79l-9.09,18.73-119.77-15.9c-6.86-.91-13.35-8.49-12.63-14.75l4.46-38.84c.98-8.53,3.81-26.23-3.98-29.86-7.79-3.63-22.07-5.27-34.44,8.37l-22.62,33.69c-20.5,21.65-23.14,55.67-6.56,84.65,13.41,23.44,36.69,39.46,62.29,42.86l-1.4,4.23c-3.15,1.59,5.93.02,2.91,1.92l-29.84,26.44c-5.33,3.35-8.78,9.02-9.28,15.29-.5,6.28,1.98,12.43,6.7,16.59l27.49,38.29c16.62,14.64,44.31,14.44,65.42,14.44,7.71,0,15.47-1.04,23.08-3.16l29.63-8.56-2.34,20.4c-1.27,11.09.63,22.26,5.51,32.26.1.2.21.41.31.61l44.32,66.43s9.2-5.79,11.25-7.05l3.12,8.4c1.15,3.11,2.81,5.94,4.85,8.41-2.09,3.73-3.53,7.81-4.12,12.12l-2.59,18.92c-1,7.26,2.07,14.48,7.97,18.8,1.49,1.1,3.11,1.96,4.79,2.59-.89,1.87-1.72,3.72-2.45,5.55-.97,2.39-1.4,4.89-1.41,7.37-1.95,3.09-3.08,6.69-3.11,10.49-.13,14.08,7.68,42.9,37.74,61.63,5.08,3.16,11.15,3.86,16.58,2.25,4.96,3.88,10.47,7.66,16.51,11.11,3.07,1.75,6.48,2.63,9.9,2.63s6.83-.87,9.89-2.63c6.05-3.45,11.55-7.23,16.51-11.11,5.42,1.62,11.5.92,16.58-2.25,30.07-18.73,37.87-47.55,37.75-61.63-.04-3.8-1.16-7.4-3.12-10.49-.01-2.49-.44-4.99-1.4-7.38-.74-1.82-1.56-3.67-2.45-5.54,1.68-.63,3.3-1.5,4.79-2.59,5.91-4.33,8.97-11.55,7.98-18.8l-2.59-18.91c-.59-4.32-2.03-8.4-4.12-12.13,2.05-2.48,3.7-5.3,4.86-8.41l3.12-8.4c2.05,1.27,11.25,7.05,11.25,7.05l44.32-66.43c.11-.2.21-.4.31-.61,4.88-10.01,6.79-21.16,5.52-32.26l-2.34-20.4,29.81,8.6c7.54,2.11,15.24,3.14,22.9,3.14,21.06,0,50.72-2.1,67.36-16.75l25.56-36.01c4.73-4.16,7.21-10.31,6.7-16.59-.51-6.28-3.95-11.95-9.28-15.29l-27.65-25.58c-3.06-1.92,47.68-26.43,61.09-49.87,16.57-28.98,13.94-63-6.56-84.65"/>
  <path class="cls-8" d="M680.27,214.66c-14.71-31.38-53.1-44.43-53.1-44.43,0,0,18.95,40.26,21.97,53.59,3.8,16.76-18.21,32.77-37.72,35.12l-140.16,16.86c1.3,8.03,1.58,15.74,1.36,22.55l140.2-16.87c15.03-1.81,29.53-9.41,39.76-20.86,4.88-5.46,8.55-11.52,10.88-17.8,2.32,8.65.69,18.59-5.02,27.65-7.51,11.89-20.95,20.33-35.09,22.03l-151.7,18.25c-1,7.93-2.34,12.91-2.34,12.91l151.19-18.19c21.22-2.55,41.24-15.13,52.51-32.98,13.44-21.29,14.54-43.72,7.27-57.83"/>
  <path class="cls-8" d="M41.24,190.97l31.05-23.61s-20.27,41.15-22.24,56.11c-2.44,18.53,17.33,36.16,36.47,38.6l137.54,17.56c-1.27,8.36-1.54,16.39-1.34,23.49l-137.58-17.57c-14.75-1.88-28.97-9.8-39.01-21.72-4.79-5.69-8.39-12-10.68-18.54-2.27,9.01-.68,19.36,4.93,28.8,7.37,12.38,20.56,21.18,34.43,22.95l148.87,19.01c.97,8.26,2.3,13.45,2.3,13.45l-148.36-18.94c-20.82-2.66-40.47-15.76-51.53-34.36-13.19-22.18-11.98-45.37-2.04-63.67,3.29-6.06,17.19-21.55,17.19-21.55Z"/>
  <g>
    <path class="cls-3" d="M472.69,361.87l-5.68-15.45-47.81,29.38,19.73-23.88c12.94-15.66,20.01-35.34,20.01-55.65v-31.08l-9.79-20.16c-13.82,11.52-35.14,20.45-35.14,20.45l2.59-10.2c-14.4,5.06-39.32,10.78-68.7,10.78s-54.3-5.71-68.7-10.78l2.59,10.2s-21.31-8.93-35.14-20.45l-9.79,20.16v31.08c0,20.31,7.08,39.99,20.02,55.65l19.73,23.88-47.81-29.38-5.68,15.45c-2.63,7.17.77,15.17,7.78,18.22l64.72,28.25,32.54-27.65-28.51,58.47,22.76,101.93s13.58,5.15,25.5,5.15,25.5-5.15,25.5-5.15l22.75-101.93-28.51-58.47,32.55,27.65,64.72-28.25c7-3.06,10.42-11.05,7.78-18.22"/>
    <path class="cls-5" d="M472.69,361.87l-5.82-15.4.22.07-47.58,29.76-2.99,1.87,2.23-2.74,19.33-23.72c6.42-7.81,11.45-16.74,14.79-26.25,3.35-9.52,5-19.6,4.87-29.67l-.15-30.6.13.59-9.87-20.12,2.21.48c-5.32,4.45-11.13,8.17-17.07,11.58-2.98,1.7-6,3.32-9.05,4.86-3.07,1.54-6.14,3.01-9.32,4.38l-2.96,1.28.79-3.15,2.55-10.21,2.14,1.96c-11.13,3.91-22.6,6.51-34.19,8.35-11.59,1.81-23.31,2.75-35.06,2.8-11.73.04-23.48-.8-35.09-2.52-11.62-1.73-23.12-4.29-34.32-8.14l2.81-2.57,2.61,10.19,1.1,4.29-4.06-1.73c-3.21-1.37-6.29-2.82-9.38-4.34-3.08-1.53-6.12-3.13-9.12-4.82-5.99-3.39-11.84-7.1-17.25-11.56l3.5-.75-9.75,20.18.23-1.01.06,30.6c-.03,9.95,1.66,19.85,5.02,29.19,3.36,9.34,8.36,18.06,14.72,25.69l19.5,23.57,9.42,11.38-12.59-7.73-47.83-29.35,3.64-1.26-4.69,12.78-.59,1.6-.29.8-.26.75c-.28.83-.47,1.8-.54,2.72-.15,1.87.15,3.77.87,5.51.72,1.74,1.85,3.3,3.28,4.52.71.61,1.5,1.13,2.34,1.56.21.11.43.2.64.3l.78.34,1.56.68,12.47,5.46,49.89,21.82-2.55.38,32.56-27.63,8.77-7.44-5.06,10.33-28.62,58.42.18-1.5,22.5,101.99-1.25-1.44c3.93,1.44,8.1,2.65,12.25,3.56,4.15.9,8.39,1.54,12.52,1.56,4.19,0,8.4-.59,12.57-1.46,4.16-.88,8.34-2.05,12.3-3.47l-1.12,1.29,23.17-101.83.11.9-14.13-29.3-14.06-29.33-2.09-4.35,3.65,3.14,32.36,27.87-.76-.11,42.49-18.21,21.26-9.06c.88-.38,1.78-.74,2.6-1.21.83-.47,1.61-1.02,2.33-1.64,1.44-1.25,2.63-2.79,3.47-4.5,1.7-3.43,1.95-7.56.63-11.19,1.38,3.6,1.21,7.77-.45,11.28-.82,1.76-2,3.35-3.45,4.65-.72.65-1.51,1.23-2.36,1.72-.85.51-1.74.87-2.62,1.27l-21.1,9.43-42.24,18.78-.41.18-.35-.29-32.73-27.43,1.56-1.21,14.45,29.14,14.38,29.17.21.42-.1.47-22.33,102.02-.21.96-.91.33c-4.23,1.55-8.44,2.76-12.8,3.73-4.34.94-8.79,1.62-13.33,1.65-4.58,0-9.01-.63-13.37-1.54-4.37-.93-8.59-2.11-12.85-3.63l-1.01-.36-.25-1.08-23.02-101.87-.17-.77.35-.72,28.41-58.52,3.71,2.88-32.52,27.67-1.15.98-1.39-.61-49.92-21.75-12.48-5.44-1.56-.68-.78-.34c-.3-.14-.6-.27-.9-.43-1.18-.6-2.3-1.34-3.31-2.2-2.03-1.73-3.63-3.94-4.65-6.39-1.02-2.45-1.46-5.15-1.25-7.81.11-1.34.35-2.61.78-3.94l.3-.86.29-.8.59-1.6,4.7-12.78,1.05-2.86,2.59,1.6,47.79,29.42-3.18,3.65-19.47-23.6c-6.69-8.04-11.99-17.29-15.51-27.15-3.54-9.86-5.33-20.37-5.25-30.82l.06-30.6v-.54s.23-.48.23-.48l9.83-20.14,1.27-2.61,2.23,1.85c5.07,4.22,10.73,7.84,16.54,11.17,2.91,1.66,5.88,3.24,8.89,4.75,3,1.5,6.07,2.96,9.1,4.26l-2.96,2.55-2.57-10.21-.98-3.9,3.8,1.33c10.81,3.79,22.13,6.31,33.51,8.13,11.4,1.78,22.93,2.71,34.48,2.76,11.53.04,23.09-.79,34.51-2.48,11.41-1.71,22.76-4.19,33.63-7.92l2.9-.99-.76,2.95-2.63,10.19-2.17-1.87c3.07-1.3,6.14-2.74,9.16-4.22,3.02-1.49,6.01-3.06,8.95-4.71,5.86-3.31,11.58-6.91,16.73-11.15l1.42-1.17.79,1.64,9.71,20.2.14.28v.3s-.15,30.6-.15,30.6c-.01,10.33-1.85,20.66-5.4,30.34-3.54,9.69-8.81,18.73-15.44,26.59l-19.65,23.45-.76-.87,48.04-29.01.16-.09.06.17,5.54,15.5Z"/>
  </g>
  <g>
    <path class="cls-3" d="M489.82,394.96l3.22,14.52,36.88,10.65c21.91,6.12,45.12.56,62.84-15.06l34.41-30.31-39.29-24.67c-19.64-12.33-42.46-16.83-64.7-12.74l-41.36,7.2,5.63,32.71,35.49-17.31c9.5-4.51,20.16-4.92,29.91-1.15l38.01,14.69-16.13,12.42c-8.32,6.4-18.07,10.06-28.16,10.57l-17.89.9,17.97-23.4-9.48.2c-9.25.2-18.33,2.78-26.53,7.56l-20.84,13.24Z"/>
    <path class="cls-5" d="M489.82,394.96l3.5,14.46-.2-.21,36.58,9.97c6.02,1.64,12.26,2.4,18.47,2.25,6.21-.15,12.38-1.19,18.28-3.05,5.9-1.87,11.53-4.58,16.69-7.98,2.58-1.7,5.05-3.57,7.39-5.59l7.04-6.29,28.26-25.27.26,3.22-33.11-20.54-4.14-2.57c-1.37-.85-2.77-1.74-4.11-2.52-2.73-1.61-5.54-3.08-8.42-4.4-5.76-2.64-11.79-4.67-17.96-6.04-6.17-1.38-12.48-2.09-18.8-2.1-3.16,0-6.32.16-9.46.5-1.57.17-3.13.38-4.69.64l-4.77.83-38.38,6.71,2.03-2.87,5.58,32.72-3.47-1.78,24.96-12.13,6.25-3.02,3.12-1.51c.54-.26.99-.49,1.62-.77.5-.23,1.12-.49,1.68-.73,4.54-1.84,9.43-2.86,14.34-2.94,4.91-.1,9.83.75,14.42,2.43l12.97,5.07,25.83,10.17,3.29,1.29-2.79,2.12-13.71,10.39c-1.14.86-2.29,1.75-3.46,2.6-1.22.89-2.44,1.7-3.71,2.47-2.53,1.54-5.19,2.87-7.95,3.97-5.5,2.2-11.43,3.4-17.3,3.56l-17.19.68-2.97.12,1.81-2.32c6.06-7.75,12.17-15.46,18.27-23.17l.81,1.59-7.76.06c-2.59,0-5.11.07-7.65.39-5.06.61-10.05,1.95-14.76,3.95-2.35,1.01-4.67,2.14-6.83,3.51l-6.62,4.05-13.25,8.07ZM489.82,394.96l12.93-8.57,6.47-4.27c2.17-1.46,4.48-2.67,6.85-3.77,4.74-2.18,9.81-3.7,15-4.48,2.59-.4,5.24-.55,7.82-.62l7.75-.28,2.05-.07-1.24,1.67c-5.88,7.89-11.75,15.78-17.67,23.63l-1.15-2.2,17.17-1.04c5.59-.27,11.04-1.52,16.16-3.66,2.56-1.06,5.02-2.34,7.37-3.82,1.17-.73,2.33-1.53,3.41-2.34,1.13-.85,2.24-1.74,3.38-2.62l13.55-10.6.49,3.41-25.95-9.84-12.92-4.91c-4.11-1.46-8.47-2.17-12.81-2.04-4.34.11-8.65,1.06-12.67,2.72-.5.21-.95.4-1.5.66-.43.19-1.01.49-1.51.74l-3.11,1.53-6.23,3.06-24.93,12.21-2.92,1.43-.56-3.21-5.67-32.7-.42-2.45,2.45-.42,38.4-6.65,4.83-.83c1.65-.27,3.3-.49,4.96-.66,3.32-.35,6.65-.52,9.99-.5,6.67.03,13.34.8,19.84,2.27,6.5,1.48,12.83,3.69,18.85,6.51,3.01,1.41,5.95,2.98,8.8,4.69,1.46.87,2.8,1.74,4.17,2.61l4.11,2.61,32.89,20.9,2.29,1.46-2.03,1.76-28.64,24.85c-2.4,2.08-4.74,4.13-7.21,6.21-2.49,2.06-5.1,3.96-7.84,5.68-5.46,3.44-11.39,6.14-17.58,7.96-12.37,3.7-25.77,3.58-38.02-.15l-36.27-11.06-.17-.05-.03-.16-2.94-14.59Z"/>
  </g>
  <g>
    <path class="cls-3" d="M205.99,394.96l-3.22,14.52-36.88,10.65c-21.91,6.12-45.12.56-62.84-15.06l-34.42-30.31,39.29-24.67c19.64-12.33,42.46-16.83,64.7-12.74l41.35,7.2-5.62,32.71-35.48-17.31c-9.5-4.51-20.16-4.92-29.91-1.15l-38.01,14.69,16.12,12.42c8.31,6.4,18.07,10.06,28.16,10.57l17.89.9-17.98-23.4,9.47.2c9.25.2,18.33,2.78,26.53,7.56l20.84,13.24Z"/>
    <path class="cls-5" d="M205.99,394.96l-2.94,14.59-.03.16-.17.05-36.27,11.06c-12.25,3.73-25.65,3.85-38.02.15-6.19-1.82-12.11-4.53-17.58-7.96-2.73-1.72-5.35-3.62-7.84-5.68-2.47-2.08-4.81-4.13-7.21-6.21l-28.64-24.85-2.03-1.76,2.29-1.46,32.89-20.9,4.11-2.61c1.38-.87,2.71-1.74,4.17-2.61,2.85-1.71,5.79-3.28,8.8-4.69,6.03-2.82,12.35-5.03,18.85-6.51,6.5-1.48,13.17-2.24,19.84-2.27,3.34-.02,6.67.15,9.99.5,1.66.17,3.31.39,4.96.66l4.83.83,38.39,6.65,2.45.42-.42,2.45-5.67,32.7-.56,3.21-2.92-1.43-24.92-12.21-6.23-3.06-3.11-1.54c-.5-.24-1.08-.54-1.51-.74-.55-.26-.99-.45-1.5-.66-4.01-1.67-8.33-2.61-12.67-2.72-4.34-.12-8.7.58-12.81,2.04l-12.92,4.91-25.95,9.84.49-3.41,13.55,10.6c1.14.89,2.24,1.77,3.38,2.62,1.09.81,2.25,1.61,3.41,2.34,2.34,1.48,4.81,2.76,7.37,3.82,5.12,2.14,10.57,3.39,16.16,3.66l17.17,1.04-1.15,2.2c-5.92-7.85-11.8-15.75-17.68-23.63l-1.24-1.67,2.05.07,7.75.28c2.58.07,5.23.23,7.82.62,5.19.77,10.25,2.3,14.99,4.48,2.37,1.1,4.68,2.31,6.85,3.77l6.47,4.27,12.93,8.57ZM205.99,394.96l-13.25-8.07-6.62-4.05c-2.16-1.37-4.48-2.5-6.83-3.51-4.71-2-9.7-3.34-14.76-3.95-2.54-.31-5.06-.39-7.65-.39l-7.76-.06.81-1.59c6.1,7.71,12.22,15.42,18.28,23.17l1.81,2.32-2.97-.12-17.19-.68c-5.87-.16-11.8-1.37-17.3-3.56-2.75-1.1-5.42-2.43-7.95-3.97-1.27-.77-2.49-1.58-3.71-2.47-1.17-.85-2.32-1.75-3.46-2.6l-13.71-10.39-2.79-2.12,3.29-1.29,25.82-10.17,12.97-5.07c4.59-1.68,9.51-2.53,14.42-2.43,4.91.08,9.8,1.11,14.34,2.94.57.23,1.18.49,1.68.73.63.28,1.07.51,1.61.77l3.12,1.51,6.25,3.02,24.96,12.13-3.47,1.78,5.58-32.72,2.03,2.87-38.38-6.71-4.77-.83c-1.56-.26-3.12-.47-4.69-.64-3.14-.34-6.3-.51-9.46-.5-6.32,0-12.63.72-18.8,2.1-6.17,1.37-12.2,3.4-17.96,6.04-2.88,1.32-5.69,2.79-8.42,4.4-1.33.78-2.73,1.67-4.11,2.52l-4.14,2.57-33.11,20.54.26-3.22,28.27,25.27,7.04,6.3c2.34,2.02,4.81,3.89,7.39,5.59,5.16,3.4,10.79,6.11,16.69,7.98,5.9,1.86,12.07,2.91,18.28,3.06,6.21.15,12.45-.62,18.47-2.25l36.58-9.97-.2.21,3.5-14.46Z"/>
  </g>
  <g>
    <path class="cls-3" d="M370.7,588.85l-12.57,4.23,6.62-17.18c2.1-5.44,8.52-8.53,14.76-7.11l16.72,3.82-9.04,8.36,27.45,12.97-2.59-18.92c-.61-4.46-3.37-8.47-7.55-10.97l-17.98-10.76c-3.51-2.1-7.88-2.67-11.95-1.63-5.86,1.5-15.43,3.36-26.67,3.36s-20.81-1.87-26.67-3.36c-4.07-1.04-8.44-.47-11.95,1.63l-17.99,10.76c-4.18,2.51-6.94,6.51-7.55,10.97l-2.59,18.92,27.45-12.97-9.04-8.36,16.72-3.82c6.24-1.43,12.67,1.66,14.76,7.11l6.62,17.18-12.57-4.23c-5.78-1.95-12.29-.05-15.66,4.58-5.93,8.12-14.76,21.15-19.24,32.22,0,0,25.71-9.55,57.7-9.55s57.7,9.55,57.7,9.55c-4.47-11.08-13.31-24.1-19.23-32.22-3.37-4.62-9.88-6.53-15.67-4.58"/>
    <path class="cls-5" d="M370.7,588.85l-12.49,4.47-.5.18.19-.51,4.59-12.53,1.16-3.13c.4-1.03.71-2.1,1.31-3.16,1.14-2.06,2.92-3.71,4.98-4.81,2.06-1.11,4.41-1.67,6.75-1.66,1.16,0,2.37.17,3.47.42l3.26.7,13.05,2.79,1.92.41-1.44,1.37-8.92,8.49-.31-1.99,27.59,12.69-2.18,1.6-1.7-11.52-.85-5.76c-.15-.95-.26-1.97-.45-2.71-.2-.83-.49-1.63-.85-2.41-.73-1.54-1.77-2.95-3.03-4.13-.63-.59-1.32-1.12-2.04-1.6-.69-.45-1.61-.96-2.42-1.45l-10.04-5.9-5.02-2.95-1.21-.71-.64-.35-.52-.25c-.76-.34-1.56-.62-2.38-.82-1.64-.4-3.37-.49-5.05-.27-.42.05-.84.13-1.25.21l-.63.15-.71.18c-.97.25-1.92.48-2.89.69-7.72,1.72-15.62,2.64-23.55,2.68-7.93.03-15.84-.83-23.6-2.47-.97-.21-1.94-.43-2.9-.66l-.72-.18-.65-.15c-.41-.08-.75-.13-1.19-.18-1.65-.18-3.34-.07-4.93.33-.8.2-1.57.48-2.31.83-.37.18-.72.37-1.07.58l-1.24.75-4.99,3-9.98,5.99c-.82.5-1.71,1.01-2.39,1.45-.69.46-1.34.98-1.94,1.55-1.2,1.14-2.17,2.49-2.85,3.96-.34.74-.6,1.5-.78,2.28-.09.4-.15.76-.21,1.21l-.2,1.44-.78,5.77-1.56,11.54-3.5-2.57,27.44-12.99-.63,4.07-9.03-8.37-3.44-3.19,4.56-1.03,13.02-2.95,3.25-.74.87-.19c.24-.05.65-.12.98-.17.65-.08,1.3-.14,1.96-.15,2.62-.04,5.25.56,7.59,1.78,2.34,1.21,4.42,3.08,5.78,5.46.33.59.63,1.23.87,1.84l.6,1.56,1.2,3.12,4.77,12.46,1.82,4.76-4.81-1.64-8.08-2.76-4.04-1.38-.46-.16-.5-.16c-.25-.07-.53-.14-.83-.21-.58-.13-1.18-.21-1.78-.25-2.39-.17-4.85.38-6.89,1.58-1.02.6-1.93,1.35-2.68,2.23-.2.23-.33.41-.56.72l-.63.86-1.24,1.71c-3.29,4.59-6.45,9.27-9.37,14.07-2.91,4.8-5.63,9.73-7.75,14.82l-2.62-2.7c4.79-1.65,9.52-2.93,14.34-4.08,4.81-1.14,9.66-2.09,14.54-2.87,9.76-1.54,19.64-2.37,29.53-2.26,9.89.1,19.74,1.1,29.44,2.8,4.85.85,9.66,1.92,14.43,3.15,4.77,1.25,9.47,2.63,14.14,4.35l-1.13,1.16c-1.64-4.22-3.7-8.3-5.91-12.29-2.22-3.99-4.62-7.89-7.12-11.73-1.25-1.92-2.53-3.82-3.83-5.7l-1.96-2.82c-.65-.91-1.45-1.71-2.33-2.4-3.56-2.78-8.56-3.59-12.93-2.2,4.31-1.56,9.43-.97,13.25,1.77.95.69,1.82,1.5,2.54,2.42l2.08,2.76c1.36,1.85,2.7,3.72,4,5.61,2.62,3.78,5.14,7.63,7.49,11.59,2.35,3.96,4.55,8.03,6.36,12.32l.75,1.78-1.88-.62c-9.19-3.04-18.78-5.12-28.37-6.62-9.61-1.49-19.33-2.26-29.02-2.17-9.69.11-19.37,1.06-28.93,2.71-4.78.83-9.52,1.84-14.22,3.02-4.68,1.19-9.39,2.55-13.84,4.16l-4.32,1.57,1.7-4.27c2.17-5.46,4.94-10.55,7.88-15.5,2.95-4.95,6.12-9.74,9.43-14.43l1.25-1.76.63-.87c.19-.27.48-.66.74-.97,1.08-1.3,2.38-2.39,3.81-3.25,2.86-1.71,6.2-2.47,9.49-2.28.82.05,1.64.16,2.45.32.39.08.81.18,1.24.31l.52.16.55.18,4.05,1.34,8.1,2.69-2.98,3.12-4.82-12.44-1.2-3.11-.6-1.56c-.17-.42-.34-.79-.56-1.17-.85-1.49-2.21-2.73-3.81-3.55-1.6-.83-3.45-1.25-5.28-1.21-.46,0-.91.05-1.37.11-.22.04-.36.05-.66.12l-.76.17-3.25.75-13.01,2.99,1.13-4.22,9.05,8.34,2.71,2.5-3.34,1.58-27.46,12.96-4.12,1.95.62-4.51,1.6-11.53.8-5.77.2-1.44c.07-.51.17-1.11.3-1.65.26-1.11.63-2.19,1.11-3.21.95-2.06,2.3-3.9,3.92-5.43.81-.77,1.68-1.46,2.6-2.08.94-.62,1.75-1.06,2.59-1.57l10-5.96,5-2.98,1.25-.74c.49-.28.99-.55,1.5-.79,1.02-.47,2.09-.84,3.17-1.11,2.17-.53,4.42-.66,6.62-.39.53.06,1.14.17,1.68.28l.76.18.69.18c.92.23,1.84.45,2.77.66,7.42,1.64,15.02,2.53,22.61,2.57,7.59.03,15.21-.8,22.66-2.37.93-.2,1.86-.4,2.78-.62l.7-.17.79-.18c.54-.1,1.08-.19,1.62-.25,2.17-.24,4.38-.09,6.51.45,1.06.27,2.1.64,3.1,1.12l.78.4.63.36,1.29.78,4.97,3.03,9.95,6.05c.84.52,1.62.96,2.55,1.58.89.6,1.73,1.28,2.5,2.03,1.55,1.49,2.84,3.28,3.74,5.26.45.99.8,2.03,1.04,3.09.25,1.15.32,2.07.46,3.03l.73,5.78,1.46,11.55.36,2.83-2.54-1.23-27.32-13.26-1.64-.8,1.33-1.2,9.16-8.23.48,1.78-12.97-3.15-3.24-.79c-1.07-.28-2.07-.44-3.13-.47-2.1-.07-4.23.38-6.11,1.33-1.89.94-3.53,2.38-4.61,4.2-.53.87-.89,1.94-1.32,2.97l-1.24,3.1-5.01,12.37-.32-.33,12.65-3.99Z"/>
  </g>
  <g>
    <path class="cls-3" d="M347.9,625.59c-20.1,0-47.21,4.64-60.77,10.64,0,0-.24,26.7,28.33,44.5,0,0-9.44-11.8-10.89-28.64,0,0,14.51,25.15,43.33,41.6,28.82-16.45,43.33-41.6,43.33-41.6-1.45,16.84-10.9,28.64-10.9,28.64,28.58-17.8,28.33-44.5,28.33-44.5-13.56-6-40.66-10.64-60.77-10.64"/>
    <path class="cls-5" d="M347.9,625.59c-5.17.15-10.32.6-15.44,1.2-5.12.59-10.22,1.38-15.29,2.33-5.06.94-10.09,2.05-15.05,3.39-4.94,1.36-9.85,2.9-14.44,4.98l.82-1.25c.08,2.08.43,4.34.9,6.49.48,2.16,1.11,4.3,1.87,6.38,1.52,4.17,3.56,8.14,6.03,11.82,4.94,7.37,11.66,13.44,19.26,18.03l-2.73,3.07c-.91-1.15-1.63-2.22-2.37-3.37-.72-1.13-1.4-2.29-2.04-3.46-1.28-2.35-2.41-4.78-3.39-7.27-1.95-4.99-3.27-10.25-3.77-15.64l-.92-9.92,5.21,8.57c1.22,2,2.67,4.09,4.12,6.06,1.47,1.99,3.02,3.93,4.6,5.84,3.17,3.82,6.56,7.46,10.14,10.89,7.16,6.86,15.11,12.91,23.71,17.79h-2.48c8.6-4.89,16.54-10.93,23.71-17.79,3.58-3.43,6.97-7.07,10.14-10.89,1.58-1.91,3.12-3.86,4.59-5.85,1.46-1.98,2.91-4.06,4.12-6.06l5.22-8.59-.92,9.94c-.5,5.38-1.82,10.65-3.77,15.64-.97,2.5-2.11,4.92-3.39,7.27-.64,1.17-1.32,2.33-2.04,3.46-.74,1.15-1.45,2.21-2.36,3.37l-2.74-3.08c7.6-4.59,14.32-10.66,19.26-18.03,2.46-3.68,4.5-7.65,6.02-11.82.76-2.08,1.39-4.22,1.87-6.38.47-2.14.83-4.41.9-6.49l.83,1.25c-4.58-2.09-9.5-3.62-14.44-4.98-4.95-1.34-9.98-2.45-15.04-3.39-5.06-.95-10.16-1.74-15.28-2.33-5.12-.6-10.27-1.05-15.44-1.2,10.34-.28,20.71.51,30.99,1.94,5.13.74,10.25,1.66,15.33,2.82,5.07,1.17,10.12,2.56,15.01,4.61l.83.35v.91c-.02,2.5-.33,4.77-.76,7.11-.44,2.31-1.03,4.59-1.77,6.83-1.47,4.47-3.51,8.76-6.06,12.73-5.08,7.96-12.11,14.59-20.03,19.62l-9.52,6.05,6.78-9.13c1.38-1.86,2.73-4.08,3.88-6.25,1.16-2.21,2.19-4.48,3.06-6.81,1.75-4.66,2.9-9.54,3.28-14.46l4.3,1.35c-1.38,2.34-2.8,4.42-4.31,6.53-1.5,2.09-3.07,4.14-4.71,6.12-3.27,3.97-6.77,7.76-10.47,11.34-7.4,7.15-15.64,13.49-24.61,18.62l-1.24.71-1.24-.71c-8.97-5.14-17.2-11.47-24.6-18.63-3.7-3.58-7.2-7.36-10.47-11.34-1.64-1.98-3.2-4.03-4.71-6.13-1.51-2.12-2.93-4.2-4.31-6.53l4.29-1.35c.39,4.92,1.53,9.8,3.28,14.46.87,2.33,1.9,4.61,3.06,6.81,1.15,2.18,2.5,4.39,3.88,6.26l6.71,9.07-9.44-6c-7.92-5.03-14.95-11.66-20.03-19.62-2.55-3.97-4.59-8.25-6.06-12.72-.74-2.24-1.33-4.52-1.77-6.83-.43-2.34-.74-4.61-.75-7.11v-.9s.82-.35.82-.35c4.9-2.05,9.94-3.44,15.01-4.61,5.08-1.16,10.19-2.08,15.33-2.82,10.27-1.43,20.64-2.22,30.99-1.94Z"/>
  </g>
  <path class="cls-6" d="M412.72,415.27l17.26,10.06c2.79,1.62,22.9-7.07,24.91-9.58l3.56-17.11-45.73,16.64Z"/>
  <path class="cls-6" d="M283.09,415.27l-17.26,10.06c-2.79,1.62-22.94-9.36-24.95-11.87l-3.53-14.82,45.74,16.64Z"/>
  <path class="cls-7" d="M408.67,286.05s-32.26,11.99-61.02,11.99c-28.76,0-61.03-11.99-61.03-11.99,27.84,13.76,51.96,47.26,51.96,47.26l-36-9.05c35.46,23.16,45.08,48.68,45.08,48.68,0,0,9.61-25.52,45.07-48.68l-36,9.05s24.12-33.5,51.95-47.26"/>
  <g>
    <path class="cls-3" d="M489.39,530.16c-7.76-26.94-7-49.79-8.98-73.47,6.19-1.01,18.72-5.54,27.2-8.13-14.09-11.85-26.2-31.19-32.89-35.1l-30.7,23.52c-6.09,4.66-14.17,5.51-21.05,2.22l-10.83-5.18-24.56,105.29,15.77,9.92c4.6,2.9,10.64.79,12.56-4.39l2.77-7.47c1.05-.29,8.61,19.47,14.89,33.07,0-7.61,2.03-28,6.6-37.07.49,2.65,25,25.87,26.64,27.58,3.26-9.85-8.59-45.4-9.29-52.07l.49-.91c12.31,11.42,31.47,22.48,31.39,22.19Z"/>
    <path class="cls-5" d="M489.39,530.16c-3.48-11.87-5.5-24.13-6.62-36.45-.56-6.16-1-12.33-1.38-18.5-.39-6.17-.77-12.34-1.34-18.49l-.03-.33.33-.06c2.3-.41,4.58-1.06,6.83-1.74,2.26-.69,4.5-1.42,6.75-2.17,4.49-1.5,8.95-3.08,13.47-4.54l-.25,1.21c-6.27-5.17-11.7-11.2-16.95-17.3l-7.82-9.16c-1.31-1.5-2.64-2.99-4.02-4.4-1.37-1.38-2.82-2.77-4.32-3.64l1.47-.09-28.67,22.55c-1.19.92-2.38,1.95-3.84,2.83-1.41.87-2.92,1.58-4.5,2.11-3.15,1.07-6.55,1.41-9.87.99-1.66-.22-3.3-.61-4.87-1.19-1.63-.61-2.93-1.3-4.32-1.93l-8.26-3.87,3.09-1.48-5.95,26.37-6.07,26.34c-2.01,8.78-4.06,17.56-6.14,26.32l-6.21,26.31-1.05-2.56,8.81,5.64,4.41,2.82,2.2,1.41.22.14.28.17c.22.14.27.14.41.22.29.13.58.27.89.35,1.22.38,2.56.38,3.79-.04,1.23-.41,2.34-1.2,3.13-2.25.39-.54.7-1.09.95-1.77l.93-2.45,1.88-4.88.38-.99.98-.26c.23-.06.49-.09.74-.07.13,0,.25.03.36.06l.18.06c.11.04.23.09.33.15l.15.09.07.05c.09.07.18.14.27.22l.15.15c.18.2.27.32.35.44.17.24.29.44.4.64.22.39.4.75.58,1.11.35.72.67,1.42.99,2.13.63,1.41,1.22,2.81,1.81,4.22l3.45,8.42c2.29,5.61,4.57,11.21,7.02,16.71l-2.99.66c.06-3.25.34-6.41.67-9.59.34-3.17.78-6.32,1.31-9.46.53-3.14,1.16-6.27,1.97-9.37.82-3.1,1.76-6.18,3.26-9.14l1.17-2.3.86,2.59c-.04-.13.04.08.1.19.08.13.17.28.28.43.21.3.44.6.68.91.48.61.99,1.21,1.51,1.8,1.04,1.19,2.12,2.36,3.21,3.53,2.18,2.33,4.4,4.62,6.64,6.91l6.76,6.81,6.81,6.8-.98.22c.64-1.96.64-4.21.56-6.39-.1-2.19-.35-4.38-.67-6.57-.64-4.37-1.57-8.71-2.56-13.03-.99-4.32-2.08-8.62-3.18-12.91l-1.63-6.45c-.51-2.16-1.08-4.31-1.37-6.52v-.03s.01-.03.01-.03l.49-.91.06-.12.1.09c4.7,4.36,9.82,8.27,15.06,11.97,2.63,1.85,5.29,3.63,8,5.37,1.35.87,2.71,1.72,4.08,2.55,1.38.82,2.74,1.69,4.18,2.38ZM489.39,530.16c-1.44-.68-2.81-1.55-4.19-2.36-1.38-.83-2.74-1.67-4.1-2.53-2.71-1.72-5.39-3.49-8.03-5.33-5.26-3.67-10.41-7.55-15.14-11.9l.16-.03-.48.91v-.06c.31,2.18.92,4.33,1.46,6.47l1.73,6.42c1.16,4.28,2.32,8.57,3.38,12.88,1.06,4.31,2.03,8.65,2.79,13.04.37,2.2.69,4.41.85,6.64.13,2.24.22,4.51-.45,6.81l-.26.9-.72-.68-6.96-6.59-6.94-6.64c-2.3-2.23-4.59-4.47-6.85-6.76-1.13-1.15-2.25-2.3-3.34-3.49-.55-.6-1.09-1.2-1.62-1.84-.27-.32-.53-.64-.79-.99-.13-.18-.26-.36-.39-.57-.13-.24-.26-.38-.39-.9l2.03.29c-1.3,2.71-2.14,5.73-2.85,8.74-.7,3.03-1.24,6.11-1.69,9.2-.44,3.1-.79,6.21-1.04,9.33-.25,3.11-.44,6.25-.41,9.31l.05,7.06-3.05-6.4c-2.62-5.51-5.06-11.07-7.49-16.62l-3.66-8.3c-.62-1.38-1.24-2.75-1.88-4.09-.32-.67-.64-1.34-.97-1.97-.17-.31-.33-.62-.49-.89-.08-.13-.16-.26-.21-.32-.02-.03-.05-.06,0,0l.05.05s.1.09.16.13l.16.1c.08.05.18.09.27.12l.14.04c.1.03.21.05.33.06.23.02.47,0,.67-.07l1.36-1.25-1.76,4.93-.89,2.46c-.33.96-.86,1.96-1.48,2.84-1.28,1.76-3.11,3.13-5.17,3.85-2.06.73-4.38.79-6.5.16-.53-.15-1.04-.36-1.55-.59-.25-.12-.6-.3-.75-.39l-.28-.16-.33-.21-2.22-1.38-4.45-2.75-8.9-5.51-1.44-.89.38-1.67,6.07-26.34c2.01-8.78,4.05-17.56,6.13-26.32l6.21-26.31,6.33-26.28.64-2.67,2.44,1.19,8.2,4,2.05,1c.71.36,1.26.62,1.92.88,1.27.51,2.59.86,3.94,1.07,2.7.42,5.51.21,8.14-.61,1.31-.41,2.59-.96,3.78-1.66,1.17-.66,2.32-1.58,3.56-2.49l29.24-21.81.74-.55.73.46c1.95,1.22,3.37,2.71,4.79,4.2,1.4,1.5,2.71,3.05,4,4.6l7.59,9.37c5.07,6.2,10.29,12.3,16.31,17.52l.98.85-1.23.36c-4.53,1.33-9.03,2.79-13.56,4.18-2.27.69-4.54,1.38-6.83,2.01-2.29.62-4.59,1.23-6.96,1.62l.3-.39c.47,6.17.76,12.35,1.06,18.53.31,6.17.59,12.35,1.14,18.51,1.05,12.31,3.01,24.57,6.43,36.46Z"/>
  </g>
  <g>
    <path class="cls-3" d="M204.47,530.16c7.76-26.94,6.99-49.79,8.98-73.47-6.19-1.01-18.72-5.54-27.2-8.13,14.09-11.85,26.2-31.19,32.89-35.1l30.7,23.52c6.09,4.66,14.17,5.51,21.05,2.22l10.83-5.18,24.56,105.29-15.77,9.92c-4.6,2.9-10.64.79-12.56-4.39l-2.77-7.47c-1.05-.29-8.61,19.47-14.89,33.07,0-7.61-2.03-28-6.6-37.07-.49,2.65-25,25.87-26.64,27.58-3.26-9.85,8.6-45.4,9.29-52.07l-.49-.91c-12.31,11.42-31.47,22.48-31.39,22.19Z"/>
    <path class="cls-5" d="M204.47,530.16c3.42-11.89,5.37-24.15,6.43-36.46.55-6.16.83-12.33,1.14-18.51.3-6.17.58-12.35,1.05-18.53l.3.39c-2.37-.39-4.67-1-6.96-1.62-2.29-.63-4.56-1.31-6.83-2.01-4.53-1.39-9.04-2.85-13.56-4.18l-1.23-.36.98-.85c6.02-5.23,11.24-11.32,16.31-17.52l7.59-9.37c1.29-1.56,2.6-3.1,4-4.6,1.42-1.49,2.84-2.98,4.78-4.2l.73-.46.74.55,29.24,21.81c1.24.91,2.39,1.84,3.56,2.49,1.2.7,2.47,1.25,3.78,1.66,2.63.82,5.44,1.02,8.14.61,1.35-.21,2.68-.56,3.94-1.07.65-.26,1.2-.52,1.92-.88l2.05-1,8.2-4,2.44-1.19.64,2.67,6.33,26.28,6.21,26.31c2.09,8.77,4.12,17.54,6.13,26.32l6.07,26.34.39,1.67-1.44.89-8.9,5.51-4.45,2.75-2.22,1.38-.33.21-.28.16c-.15.09-.5.27-.75.39-.5.23-1.01.44-1.55.59-2.12.63-4.43.57-6.5-.16-2.07-.72-3.9-2.09-5.17-3.85-.63-.87-1.15-1.88-1.48-2.84l-.89-2.46-1.76-4.93,1.36,1.25c.21.06.44.09.67.07.11,0,.23-.03.33-.06l.15-.04c.09-.03.18-.07.27-.12l.16-.1c.06-.04.11-.08.16-.13l.05-.05c.05-.06.02-.03,0,0-.05.06-.13.19-.21.32-.16.27-.33.57-.49.89-.33.63-.65,1.3-.97,1.97-.64,1.34-1.26,2.71-1.88,4.09l-3.66,8.3c-2.44,5.55-4.87,11.11-7.49,16.62l-3.05,6.4.05-7.06c.02-3.06-.17-6.2-.42-9.31-.26-3.12-.6-6.23-1.04-9.33-.44-3.09-.98-6.17-1.69-9.2-.71-3.02-1.56-6.03-2.85-8.74l2.03-.29c-.13.52-.26.66-.39.9-.13.21-.26.39-.39.57-.26.35-.52.67-.79.99-.53.63-1.07,1.24-1.62,1.84-1.1,1.19-2.22,2.35-3.34,3.49-2.26,2.29-4.55,4.53-6.85,6.76l-6.94,6.64-6.96,6.59-.72.68-.26-.9c-.67-2.3-.58-4.58-.45-6.81.16-2.24.47-4.45.85-6.64.76-4.39,1.73-8.73,2.79-13.04,1.06-4.31,2.21-8.6,3.38-12.88l1.73-6.42c.54-2.15,1.16-4.29,1.45-6.47v.06s-.47-.91-.47-.91l.16.03c-4.74,4.35-9.88,8.23-15.14,11.9-2.64,1.83-5.31,3.61-8.03,5.33-1.36.86-2.72,1.7-4.1,2.53-1.38.81-2.75,1.68-4.19,2.36ZM204.47,530.16c1.44-.68,2.8-1.56,4.18-2.38,1.37-.83,2.73-1.69,4.08-2.55,2.7-1.73,5.37-3.52,8-5.37,5.24-3.7,10.36-7.6,15.06-11.97l.1-.09.06.12.49.91.02.03v.03c-.3,2.22-.86,4.37-1.37,6.52l-1.63,6.45c-1.1,4.3-2.18,8.6-3.18,12.91-.98,4.32-1.91,8.65-2.56,13.03-.31,2.19-.57,4.38-.67,6.57-.08,2.17-.08,4.42.56,6.39l-.98-.22,6.81-6.8,6.76-6.81c2.24-2.28,4.46-4.58,6.64-6.91,1.09-1.17,2.17-2.34,3.21-3.53.52-.59,1.03-1.2,1.51-1.8.24-.3.47-.61.68-.91.1-.15.2-.3.28-.43.07-.1.15-.31.1-.19l.86-2.59,1.17,2.3c1.5,2.96,2.44,6.04,3.26,9.14.8,3.1,1.43,6.23,1.97,9.37.53,3.14.96,6.29,1.31,9.46.33,3.17.61,6.33.67,9.59l-2.99-.66c2.45-5.5,4.73-11.1,7.02-16.71l3.45-8.42c.59-1.41,1.18-2.81,1.81-4.22.31-.71.64-1.41.99-2.13.18-.36.36-.72.58-1.11.11-.2.23-.39.4-.64.09-.12.17-.25.35-.44l.15-.15c.09-.08.18-.15.27-.22l.07-.05.15-.09c.11-.06.22-.11.33-.15l.18-.06c.12-.03.24-.05.36-.06.25-.02.51,0,.74.07l.98.26.38.99,1.88,4.88.93,2.44c.25.69.56,1.23.95,1.77.79,1.05,1.89,1.84,3.13,2.25,1.23.41,2.58.42,3.79.04.31-.09.6-.22.89-.35.14-.08.19-.09.41-.22l.28-.17.22-.14,2.2-1.41,4.41-2.82,8.81-5.64-1.05,2.56-6.21-26.31c-2.08-8.77-4.14-17.54-6.14-26.32l-6.07-26.34-5.94-26.37,3.09,1.48-8.26,3.87c-1.39.63-2.69,1.32-4.32,1.93-1.57.58-3.21.98-4.87,1.19-3.32.42-6.72.08-9.87-.99-1.57-.54-3.09-1.24-4.5-2.11-1.46-.88-2.65-1.91-3.84-2.82l-28.67-22.55,1.47.09c-1.5.87-2.95,2.26-4.32,3.64-1.38,1.4-2.7,2.89-4.02,4.4l-7.82,9.16c-5.25,6.1-10.68,12.13-16.95,17.3l-.25-1.21c4.52,1.46,8.99,3.03,13.47,4.54,2.24.75,4.49,1.49,6.75,2.18,2.26.68,4.53,1.33,6.83,1.74l.33.06-.03.33c-.56,6.15-.94,12.32-1.34,18.49-.38,6.17-.82,12.34-1.38,18.5-1.12,12.31-3.14,24.57-6.62,36.45Z"/>
  </g>
  <path class="cls-2" d="M234.07,248.66c-6.93.86-10.66,3.1-17.62,4.06,1.25,3.78,6.78,8.05,9.04,10.57-9.62,3.33-28.33,6.71-33.27,15.48,2.09.03,8.25,3.28,9.69,2.55-2.7,5.83-9.2,11.07-16.01,8.29,2.36,14.16,5.83,21.17,16.99,24.33-2.44.7-9.88.12-12.14-.38,4.1,10.12,22.74,15.5,32.35,18.75-2.33,1.78-6.05,3.79-7.21,6.94,7.04.68,16.63,1.72,24.39,3.95l-14.31-63.88,8.09-30.66Z"/>
  <path class="cls-2" d="M460.06,246.61c6.94.86,10.66,3.1,17.62,4.06-1.25,3.78-6.78,8.05-9.04,10.57,9.62,3.33,28.33,6.71,33.27,15.48-2.09.03-8.25,3.28-9.69,2.56,2.7,5.83,9.19,11.07,16,8.29-2.36,14.16-5.83,15.01-16.99,18.17,2.44.7,9.87,6.28,12.14,5.78-4.11,10.12-22.74,15.5-32.35,18.75,2.33,1.78,6.06,3.79,7.21,6.94-7.04.68-16.63,1.73-24.39,3.95l17.51-65.36-11.29-29.18Z"/>
  <path class="cls-1" d="M168.55,533.04h3.44c3.94.47,6.73,1.55,8.82,3.71,3.21,3.31,2.73,9.38,2.82,15.88h-11.2v-6.44c0-1.77.24-4.94-.79-5.64-.41-.28-1.89-.38-2.47.09-1.12.89-.8,5.07-.8,7.06v15.7c0,2.36-.27,6.04.97,6.79.65.39,1.54.35,2.12,0,1.17-.71.94-3.19.97-4.85.04-2.21-.03-3.89,0-5.73h11.2c-.22,4.48.19,8.64-1.15,11.73-1.66,3.85-5.52,5.61-10.32,6.35h-3.44c-4.22-.36-8.29-2.02-10.06-5.56-1.35-2.7-1.5-7.37-1.5-11.47,0-4.59-.17-8.92,0-12.97.1-2.32.1-4.26.44-6,1.03-5.26,5.37-7.99,10.94-8.64Z"/>
  <path class="cls-1" d="M136.97,533.92c6.29.06,12.82-.12,18.97.09v8.47h-7.77v8.2h6.88v8.12h-6.88v18h-11.2v-42.87Z"/>
  <path class="cls-1" d="M526.46,574.64h-3.49c-6.13-.68-10.99-3.69-11.46-9.58-.85-10.87.19-23.94-.09-34.81h11.27v28.46c0,2.19-.52,7.92.99,8.5,2.99,1.16,2.24-5.44,2.24-7.79v-29.17c3.76.06,7.75-.12,11.36.09v27.83c0,3.16.21,6.37-.45,8.86-1.19,4.47-5.34,7.08-10.38,7.61Z"/>
  <path class="cls-1" d="M566.64,530.25v43.49c-3.76-.06-7.76.12-11.36-.09v-18.17h-3.31c-.06,6.06.12,12.35-.09,18.26-3.73-.06-7.69.12-11.28-.09.06-14.44-.12-29.11.09-43.4h11.27v15.57h3.31c.06-5.16-.12-10.56.09-15.57h11.27Z"/>
</svg>